:SAMPLES-PER-SECOND 30
:FULLY-SPECIFIED
:DEGREES
296
root  30.8882 34.3794 28.3542 -173.413 14.7624 179.168
LeftUpLeg  -12.7946 11.8391 -3.76193
LeftLeg  13.7092 4.37796 0.77172
LeftFoot  -1.12601 -8.77725e-005 -0.103778
LeftToes  -11.6347 2.48695e-006 -1.03773e-007
Spine  5.30526 -0.786528 -2.58085
Spine1  10.3385 -2.12799 -3.97874
RightShoulder  0.0248748 4.63466 5.06387
RightArm  -28.6193 -9.36489 80.0101
RightForeArm  22.8758 36.12 7.39487
RightHand  0.301252 -5.11667 -6.3564
LeftShoulder1  0.132365 -0.394034 -9.17979
LeftArm  -17.4939 -8.42089 -63.8849
LeftForeArm  31.4841 -21.0701 -3.88566
LeftHand  0.0750665 1.36253 5.90648
HEad  4.5687 20.1816 -3.52213
RightUpLeg  -23.2912 -11.7492 -0.874207
RightLeg  23.0469 -9.74433 -3.40433
RightFoot  -0.118756 -0.000394557 -0.00319168
RightToes  -25.1446 -0.111955 -0.216845
297
root  30.9115 34.3739 28.2098 -173.4 13.9263 179.226
LeftUpLeg  -12.5739 11.5468 -3.67133
LeftLeg  13.7167 3.92121 0.691711
LeftFoot  -1.33435 9.90521e-005 -0.108658
LeftToes  -11.59 2.48695e-006 -1.03773e-007
Spine  5.50003 -0.877697 -2.57003
Spine1  10.7485 -2.32358 -3.96372
RightShoulder  0.023794 4.57971 5.27224
RightArm  -28.9648 -9.91493 79.9174
RightForeArm  23.0221 34.9442 7.07806
RightHand  0.293962 -5.12696 -6.18082
LeftShoulder1  0.132873 -0.305853 -9.31971
LeftArm  -17.1319 -7.6631 -64.3378
LeftForeArm  31.4004 -20.8503 -3.84123
LeftHand  0.0799746 1.41865 6.05319
HEad  4.71742 20.3351 -3.71593
RightUpLeg  -24.9937 -11.0627 0.119362
RightLeg  20.9927 -7.80352 -2.42306
RightFoot  0.101666 0.000372937 -0.0425156
RightToes  -26.3935 -0.119891 -0.226135
298
root  30.9529 34.3886 28.0401 -173.029 12.7178 179.54
LeftUpLeg  -12.5332 10.8084 -3.34094
LeftLeg  13.506 3.55489 0.613601
LeftFoot  -1.36721 -0.000190531 -0.100043
LeftToes  -11.8083 2.48695e-006 -1.03773e-007
Spine  5.57626 -1.00098 -2.37613
Spine1  10.9147 -2.56868 -3.64714
RightShoulder  0.0220937 4.77107 5.40388
RightArm  -29.9249 -10.7766 79.6186
RightForeArm  23.4345 32.9625 6.56476
RightHand  0.280135 -5.06521 -5.94931
LeftShoulder1  0.132562 -0.340177 -9.418
LeftArm  -17.0009 -6.2464 -65.1119
LeftForeArm  31.4518 -20.3551 -3.74145
LeftHand  0.0862376 1.5644 5.9139
HEad  4.59855 20.4165 -3.98963
RightUpLeg  -27.0518 -11.5735 1.618
RightLeg  19.2894 -5.19898 -1.45007
RightFoot  0.754926 0.00318607 -0.105961
RightToes  -28.0515 -0.130736 -0.238198
299
root  31.0067 34.4069 27.8475 -172.682 11.3759 179.769
LeftUpLeg  -12.4521 10.1308 -3.05022
LeftLeg  13.3146 2.95187 0.499231
LeftFoot  -1.45588 -0.00034128 -0.0869058
LeftToes  -11.846 2.48695e-006 -1.03773e-007
Spine  5.64133 -1.08793 -2.18509
Spine1  11.0606 -2.73032 -3.34178
RightShoulder  0.0180875 4.9665 5.60073
RightArm  -31.1504 -11.5177 79.2393
RightForeArm  23.9678 30.0303 5.84717
RightHand  0.286216 -5.21228 -5.90439
LeftShoulder1  0.131096 -0.374335 -9.47723
LeftArm  -16.5849 -4.6812 -65.9879
LeftForeArm  31.6407 -19.3202 -3.53496
LeftHand  0.101259 1.81876 5.97998
HEad  4.49059 20.3017 -4.02072
RightUpLeg  -29.0788 -12.5519 3.06875
RightLeg  17.9451 -2.10604 -0.535451
RightFoot  1.98965 0.00865712 -0.120952
RightToes  -29.4663 -0.140263 -0.24824
300
root  31.0699 34.4172 27.6286 -172.423 9.937 179.823
LeftUpLeg  -12.2653 9.40449 -2.88143
LeftLeg  13.073 2.28855 0.376886
LeftFoot  -1.54655 -0.000337426 -0.0689019
LeftToes  -11.9788 2.48695e-006 -1.03773e-007
Spine  5.69158 -1.11976 -2.04119
Spine1  11.1829 -2.7628 -3.13788
RightShoulder  0.0129781 5.01705 5.88583
RightArm  -32.8423 -12.13 78.908
RightForeArm  25.3141 26.3717 5.01066
RightHand  0.288055 -5.27898 -5.86499
LeftShoulder1  0.126466 -0.365181 -9.51925
LeftArm  -16.0488 -3.04473 -66.8409
LeftForeArm  32.4333 -17.8807 -3.25188
LeftHand  0.115117 2.13448 5.78469
HEad  4.6843 19.9786 -3.71498
RightUpLeg  -30.5288 -12.5074 3.7326
RightLeg  16.4237 -0.166576 -0.0375348
RightFoot  2.62022 0.00987494 -0.0542259
RightToes  -29.9265 -0.14256 -0.250672
301
root  31.1486 34.4118 27.3653 -172.115 8.38153 179.749
LeftUpLeg  -12.1702 9.01458 -2.81789
LeftLeg  13.0296 1.18799 0.194032
LeftFoot  -1.79353 -0.000607042 -0.0387906
LeftToes  -12.3781 2.48695e-006 -1.03773e-007
Spine  5.68078 -1.09185 -1.91456
Spine1  11.1862 -2.65371 -2.98967
RightShoulder  0.00781718 5.33732 6.04958
RightArm  -35.6002 -13.1357 78.7588
RightForeArm  27.1602 22.9492 4.27621
RightHand  0.295265 -5.60072 -5.65416
LeftShoulder1  0.120185 -0.423045 -9.59987
LeftArm  -15.5099 -1.22015 -67.4858
LeftForeArm  33.7224 -16.3231 -2.95054
LeftHand  0.127877 2.56153 5.33057
HEad  5.15053 19.5182 -3.19285
RightUpLeg  -31.4814 -11.9548 3.79448
RightLeg  14.8 0.608902 0.120232
RightFoot  2.0921 0.0104446 -0.0119554
RightToes  -28.4658 -0.141751 -0.249835
302
root  31.243 34.3904 27.0273 -171.795 6.72351 179.38
LeftUpLeg  -11.9142 8.80785 -3.00201
LeftLeg  12.8245 -0.206711 -0.0347556
LeftFoot  -2.05181 0.000229937 0.0128314
LeftToes  -12.9998 2.48695e-006 -1.03773e-007
Spine  5.64277 -1.0036 -1.87843
Spine1  11.1392 -2.4039 -3.02962
RightShoulder  0.0033698 5.68379 6.23135
RightArm  -38.5015 -14.4258 78.7359
RightForeArm  28.9494 19.9385 3.66123
RightHand  0.319348 -6.03949 -5.67185
LeftShoulder1  0.113599 -0.535343 -9.73136
LeftArm  -15.0832 0.669001 -67.7832
LeftForeArm  35.1014 -14.7668 -2.65424
LeftHand  0.132915 3.0114 4.67259
HEad  5.94115 18.7274 -2.56127
RightUpLeg  -32.1592 -12.8358 3.95541
RightLeg  13.3093 1.4443 0.245871
RightFoot  2.4971 0.00985382 0.0337507
RightToes  -28.6724 -0.139402 -0.247377
303
root  31.3494 34.3418 26.6262 -171.523 5.06384 178.728
LeftUpLeg  -11.59 8.51991 -3.40007
LeftLeg  12.7991 -1.53936 -0.248495
LeftFoot  -2.48652 0.00174892 0.0805774
LeftToes  -13.807 2.48695e-006 -1.03773e-007
Spine  5.57206 -0.869906 -1.91665
Spine1  11.0259 -2.05166 -3.21819
RightShoulder  -6.56595e-005 5.94524 6.36267
RightArm  -41.1036 -15.9487 78.8544
RightForeArm  30.7865 17.6618 3.21195
RightHand  0.331029 -6.25506 -5.67679
LeftShoulder1  0.104031 -0.4545 -9.94362
LeftArm  -15.1221 2.5345 -67.8254
LeftForeArm  36.7168 -13.275 -2.37401
LeftHand  0.13359 3.38639 4.13845
HEad  6.7082 17.722 -1.89083
RightUpLeg  -32.4227 -14.7897 4.13911
RightLeg  11.9608 2.20674 0.322161
RightFoot  3.30797 0.00799681 0.100587
RightToes  -29.1196 -0.13708 -0.244941
304
root  31.4644 34.2677 26.1624 -171.339 3.48665 177.739
LeftUpLeg  -11.1469 7.46198 -4.03691
LeftLeg  13.0206 -2.08851 -0.34489
LeftFoot  -3.09708 0.00368174 0.136181
LeftToes  -14.3138 2.48695e-006 -1.03773e-007
Spine  5.49759 -0.683333 -2.06545
Spine1  10.902 -1.58392 -3.61873
RightShoulder  -0.00139678 6.05187 6.54822
RightArm  -43.1599 -17.6365 79.0972
RightForeArm  32.5787 16.3948 2.96648
RightHand  0.321007 -6.38106 -5.37836
LeftShoulder1  0.092875 -0.261296 -10.1997
LeftArm  -15.799 4.48871 -67.4977
LeftForeArm  38.2593 -12.2397 -2.18114
LeftHand  0.138193 3.81222 3.77376
HEad  7.35068 16.6093 -1.37209
RightUpLeg  -31.9342 -16.3636 3.59719
RightLeg  10.6131 2.01914 0.246699
RightFoot  4.24516 0.00929549 0.126726
RightToes  -28.8896 -0.13635 -0.244175
305
root  31.5951 34.1774 25.6296 -171.141 2.13814 176.656
LeftUpLeg  -10.63 7.7613 -4.76549
LeftLeg  13.3104 -3.68552 -0.626343
LeftFoot  -3.66286 0.00857984 0.268317
LeftToes  -15.1023 2.48695e-006 -1.03773e-007
Spine  5.36342 -0.423214 -2.26475
Spine1  10.6496 -0.971266 -4.10434
RightShoulder  -0.00188302 6.08228 6.7811
RightArm  -44.3432 -19.4301 79.3555
RightForeArm  33.6501 15.8341 2.85864
RightHand  0.304073 -6.50076 -4.97537
LeftShoulder1  0.0819307 -0.077381 -10.4897
LeftArm  -16.9759 6.67057 -66.7121
LeftForeArm  38.82 -11.6585 -2.07384
LeftHand  0.137831 3.93283 3.6364
HEad  7.89038 15.4664 -0.925127
RightUpLeg  -30.7776 -17.1437 2.4823
RightLeg  9.56852 1.20101 0.125177
RightFoot  5.41731 0.0155986 0.0959224
RightToes  -29.1791 -0.138309 -0.246221
306
root  31.7506 34.0917 25.0335 -170.881 1.06564 175.729
LeftUpLeg  -10.1517 7.54849 -5.25826
LeftLeg  13.9256 -4.49382 -0.812843
LeftFoot  -4.4128 0.0150117 0.389621
LeftToes  -15.4203 2.48695e-006 -1.03773e-007
Spine  5.12042 -0.138049 -2.43787
Spine1  10.1703 -0.325809 -4.52076
RightShoulder  -0.00146778 6.03897 6.89883
RightArm  -44.903 -20.9032 79.5837
RightForeArm  34.2753 15.0745 2.71414
RightHand  0.284869 -6.4008 -4.71645
LeftShoulder1  0.0704616 0.218149 -10.7937
LeftArm  -18.2619 9.03619 -65.6292
LeftForeArm  38.6908 -11.3749 -2.02211
LeftHand  0.147735 3.91417 3.94442
HEad  8.44569 14.6398 -0.525946
RightUpLeg  -29.2485 -17.6466 1.38919
RightLeg  9.19841 0.897335 0.0880366
RightFoot  7.64076 0.0182417 0.104367
RightToes  -32.0063 -0.157978 -0.265666
307
root  31.9188 34.0224 24.3882 -170.643 -0.0248108 175.347
LeftUpLeg  -9.65429 6.95293 -5.15306
LeftLeg  14.7844 -4.84921 -0.952103
LeftFoot  -5.40963 0.0241454 0.511075
LeftToes  -15.7284 2.48695e-006 -1.03773e-007
Spine  4.80464 0.0949241 -2.42814
Spine1  9.54562 0.183912 -4.56443
RightShoulder  6.34414e-005 5.83301 7.01626
RightArm  -44.9055 -21.7894 79.4217
RightForeArm  34.5928 13.8426 2.48262
RightHand  0.279878 -6.41282 -4.61808
LeftShoulder1  0.0582552 0.52125 -11.1163
LeftArm  -19.601 11.4394 -64.4241
LeftForeArm  38.238 -11.2786 -2.00498
LeftHand  0.150785 3.87146 4.13874
HEad  8.88528 14.0427 -0.242874
RightUpLeg  -27.7086 -19.2892 1.34979
RightLeg  7.78594 2.07214 0.150029
RightFoot  11.6642 -0.00243594 0.401373
RightToes  -30.7104 -0.148844 -0.256873
308
root  32.1154 33.9858 23.7663 -170.423 -1.05301 175.74
LeftUpLeg  -9.46991 6.21519 -4.23363
LeftLeg  16.2153 -4.90107 -1.08998
LeftFoot  -6.55201 0.035507 0.620308
LeftToes  -16.1948 2.48695e-006 -1.03773e-007
Spine  4.43881 0.307297 -2.10368
Spine1  8.82877 0.614047 -3.96552
RightShoulder  0.00415564 5.70987 7.14974
RightArm  -44.7684 -22.1157 78.6033
RightForeArm  34.6387 12.6009 2.25208
RightHand  0.268478 -6.31581 -4.48866
LeftShoulder1  0.0451768 0.820889 -11.394
LeftArm  -21.49 13.4554 -63.5896
LeftForeArm  38.667 -10.8859 -1.93291
LeftHand  0.158231 3.71581 4.49666
HEad  9.17368 13.5762 -0.101879
RightUpLeg  -26.1346 -19.4512 1.67824
RightLeg  6.08068 0.858572 0.0372423
RightFoot  14.5839 0.0229555 0.198144
RightToes  -29.7471 -0.142183 -0.250204
309
root  32.3233 33.9849 23.1728 -170.324 -1.56966 176.648
LeftUpLeg  -9.10065 5.27202 -2.87284
LeftLeg  17.3393 -4.1784 -1.01633
LeftFoot  -7.56324 0.0402687 0.609214
LeftToes  -16.1247 2.48695e-006 -1.03773e-007
Spine  4.10449 0.617289 -1.57886
Spine1  8.1806 1.21559 -2.95022
RightShoulder  0.0103192 5.68389 7.3258
RightArm  -44.1756 -21.7772 77.1648
RightForeArm  34.287 11.7937 2.10381
RightHand  0.267626 -6.42294 -4.39248
LeftShoulder1  0.032156 1.09498 -11.3817
LeftArm  -23.9553 14.7989 -63.463
LeftForeArm  39.6853 -9.98004 -1.76734
LeftHand  0.178157 3.6845 5.15501
HEad  8.97012 13.0544 -0.208189
RightUpLeg  -25.7877 -19.2871 2.6247
RightLeg  7.43063 0.670809 0.045324
RightFoot  13.4808 0.0283075 0.13803
RightToes  -23.6598 -0.102786 -0.205577
